mtllib EcoKukirin.mtl
o EcoKukirin
v -0.0450 0.6200 0.2600
v -0.0450 0.5974 0.2580
v -0.0450 0.5755 0.2522
v -0.0450 0.5550 0.2426
v -0.0450 0.5364 0.2296
v -0.0450 0.5204 0.2136
v -0.0450 0.5074 0.1950
v -0.0450 0.4978 0.1745
v -0.0450 0.4920 0.1526
v -0.0450 0.4900 0.1300
v -0.0450 0.4920 0.1074
v -0.0450 0.4978 0.0855
v -0.0450 0.5074 0.0650
v -0.0450 0.5204 0.0464
v -0.0450 0.5364 0.0304
v -0.0450 0.5550 0.0174
v -0.0450 0.5755 0.0078
v -0.0450 0.5974 0.0020
v -0.0450 0.6200 0.0000
v -0.0450 0.6426 0.0020
v -0.0450 0.6645 0.0078
v -0.0450 0.6850 0.0174
v -0.0450 0.7036 0.0304
v -0.0450 0.7196 0.0464
v -0.0450 0.7326 0.0650
v -0.0450 0.7422 0.0855
v -0.0450 0.7480 0.1074
v -0.0450 0.7500 0.1300
v -0.0450 0.7480 0.1526
v -0.0450 0.7422 0.1745
v -0.0450 0.7326 0.1950
v -0.0450 0.7196 0.2136
v -0.0450 0.7036 0.2296
v -0.0450 0.6850 0.2426
v -0.0450 0.6645 0.2522
v -0.0450 0.6426 0.2580
v 0.0450 0.6200 0.2600
v 0.0450 0.5974 0.2580
v 0.0450 0.5755 0.2522
v 0.0450 0.5550 0.2426
v 0.0450 0.5364 0.2296
v 0.0450 0.5204 0.2136
v 0.0450 0.5074 0.1950
v 0.0450 0.4978 0.1745
v 0.0450 0.4920 0.1526
v 0.0450 0.4900 0.1300
v 0.0450 0.4920 0.1074
v 0.0450 0.4978 0.0855
v 0.0450 0.5074 0.0650
v 0.0450 0.5204 0.0464
v 0.0450 0.5364 0.0304
v 0.0450 0.5550 0.0174
v 0.0450 0.5755 0.0078
v 0.0450 0.5974 0.0020
v 0.0450 0.6200 0.0000
v 0.0450 0.6426 0.0020
v 0.0450 0.6645 0.0078
v 0.0450 0.6850 0.0174
v 0.0450 0.7036 0.0304
v 0.0450 0.7196 0.0464
v 0.0450 0.7326 0.0650
v 0.0450 0.7422 0.0855
v 0.0450 0.7480 0.1074
v 0.0450 0.7500 0.1300
v 0.0450 0.7480 0.1526
v 0.0450 0.7422 0.1745
v 0.0450 0.7326 0.1950
v 0.0450 0.7196 0.2136
v 0.0450 0.7036 0.2296
v 0.0450 0.6850 0.2426
v 0.0450 0.6645 0.2522
v 0.0450 0.6426 0.2580
v -0.0470 0.6200 0.2106
v -0.0470 0.6060 0.2094
v -0.0470 0.5924 0.2057
v -0.0470 0.5797 0.1998
v -0.0470 0.5682 0.1917
v -0.0470 0.5583 0.1818
v -0.0470 0.5502 0.1703
v -0.0470 0.5443 0.1576
v -0.0470 0.5406 0.1440
v -0.0470 0.5394 0.1300
v -0.0470 0.5406 0.1160
v -0.0470 0.5443 0.1024
v -0.0470 0.5502 0.0897
v -0.0470 0.5583 0.0782
v -0.0470 0.5682 0.0683
v -0.0470 0.5797 0.0602
v -0.0470 0.5924 0.0543
v -0.0470 0.6060 0.0506
v -0.0470 0.6200 0.0494
v -0.0470 0.6340 0.0506
v -0.0470 0.6476 0.0543
v -0.0470 0.6603 0.0602
v -0.0470 0.6718 0.0683
v -0.0470 0.6817 0.0782
v -0.0470 0.6898 0.0897
v -0.0470 0.6957 0.1024
v -0.0470 0.6994 0.1160
v -0.0470 0.7006 0.1300
v -0.0470 0.6994 0.1440
v -0.0470 0.6957 0.1576
v -0.0470 0.6898 0.1703
v -0.0470 0.6817 0.1818
v -0.0470 0.6718 0.1917
v -0.0470 0.6603 0.1998
v -0.0470 0.6476 0.2057
v -0.0470 0.6340 0.2094
v 0.0470 0.6200 0.2106
v 0.0470 0.6060 0.2094
v 0.0470 0.5924 0.2057
v 0.0470 0.5797 0.1998
v 0.0470 0.5682 0.1917
v 0.0470 0.5583 0.1818
v 0.0470 0.5502 0.1703
v 0.0470 0.5443 0.1576
v 0.0470 0.5406 0.1440
v 0.0470 0.5394 0.1300
v 0.0470 0.5406 0.1160
v 0.0470 0.5443 0.1024
v 0.0470 0.5502 0.0897
v 0.0470 0.5583 0.0782
v 0.0470 0.5682 0.0683
v 0.0470 0.5797 0.0602
v 0.0470 0.5924 0.0543
v 0.0470 0.6060 0.0506
v 0.0470 0.6200 0.0494
v 0.0470 0.6340 0.0506
v 0.0470 0.6476 0.0543
v 0.0470 0.6603 0.0602
v 0.0470 0.6718 0.0683
v 0.0470 0.6817 0.0782
v 0.0470 0.6898 0.0897
v 0.0470 0.6957 0.1024
v 0.0470 0.6994 0.1160
v 0.0470 0.7006 0.1300
v 0.0470 0.6994 0.1440
v 0.0470 0.6957 0.1576
v 0.0470 0.6898 0.1703
v 0.0470 0.6817 0.1818
v 0.0470 0.6718 0.1917
v 0.0470 0.6603 0.1998
v 0.0470 0.6476 0.2057
v 0.0470 0.6340 0.2094
v -0.0500 0.6200 0.1550
v -0.0500 0.6104 0.1531
v -0.0500 0.6023 0.1477
v -0.0500 0.5969 0.1396
v -0.0500 0.5950 0.1300
v -0.0500 0.5969 0.1204
v -0.0500 0.6023 0.1123
v -0.0500 0.6104 0.1069
v -0.0500 0.6200 0.1050
v -0.0500 0.6296 0.1069
v -0.0500 0.6377 0.1123
v -0.0500 0.6431 0.1204
v -0.0500 0.6450 0.1300
v -0.0500 0.6431 0.1396
v -0.0500 0.6377 0.1477
v -0.0500 0.6296 0.1531
v 0.0500 0.6200 0.1550
v 0.0500 0.6104 0.1531
v 0.0500 0.6023 0.1477
v 0.0500 0.5969 0.1396
v 0.0500 0.5950 0.1300
v 0.0500 0.5969 0.1204
v 0.0500 0.6023 0.1123
v 0.0500 0.6104 0.1069
v 0.0500 0.6200 0.1050
v 0.0500 0.6296 0.1069
v 0.0500 0.6377 0.1123
v 0.0500 0.6431 0.1204
v 0.0500 0.6450 0.1300
v 0.0500 0.6431 0.1396
v 0.0500 0.6377 0.1477
v 0.0500 0.6296 0.1531
v -0.0450 -0.6200 0.2600
v -0.0450 -0.6426 0.2580
v -0.0450 -0.6645 0.2522
v -0.0450 -0.6850 0.2426
v -0.0450 -0.7036 0.2296
v -0.0450 -0.7196 0.2136
v -0.0450 -0.7326 0.1950
v -0.0450 -0.7422 0.1745
v -0.0450 -0.7480 0.1526
v -0.0450 -0.7500 0.1300
v -0.0450 -0.7480 0.1074
v -0.0450 -0.7422 0.0855
v -0.0450 -0.7326 0.0650
v -0.0450 -0.7196 0.0464
v -0.0450 -0.7036 0.0304
v -0.0450 -0.6850 0.0174
v -0.0450 -0.6645 0.0078
v -0.0450 -0.6426 0.0020
v -0.0450 -0.6200 0.0000
v -0.0450 -0.5974 0.0020
v -0.0450 -0.5755 0.0078
v -0.0450 -0.5550 0.0174
v -0.0450 -0.5364 0.0304
v -0.0450 -0.5204 0.0464
v -0.0450 -0.5074 0.0650
v -0.0450 -0.4978 0.0855
v -0.0450 -0.4920 0.1074
v -0.0450 -0.4900 0.1300
v -0.0450 -0.4920 0.1526
v -0.0450 -0.4978 0.1745
v -0.0450 -0.5074 0.1950
v -0.0450 -0.5204 0.2136
v -0.0450 -0.5364 0.2296
v -0.0450 -0.5550 0.2426
v -0.0450 -0.5755 0.2522
v -0.0450 -0.5974 0.2580
v 0.0450 -0.6200 0.2600
v 0.0450 -0.6426 0.2580
v 0.0450 -0.6645 0.2522
v 0.0450 -0.6850 0.2426
v 0.0450 -0.7036 0.2296
v 0.0450 -0.7196 0.2136
v 0.0450 -0.7326 0.1950
v 0.0450 -0.7422 0.1745
v 0.0450 -0.7480 0.1526
v 0.0450 -0.7500 0.1300
v 0.0450 -0.7480 0.1074
v 0.0450 -0.7422 0.0855
v 0.0450 -0.7326 0.0650
v 0.0450 -0.7196 0.0464
v 0.0450 -0.7036 0.0304
v 0.0450 -0.6850 0.0174
v 0.0450 -0.6645 0.0078
v 0.0450 -0.6426 0.0020
v 0.0450 -0.6200 0.0000
v 0.0450 -0.5974 0.0020
v 0.0450 -0.5755 0.0078
v 0.0450 -0.5550 0.0174
v 0.0450 -0.5364 0.0304
v 0.0450 -0.5204 0.0464
v 0.0450 -0.5074 0.0650
v 0.0450 -0.4978 0.0855
v 0.0450 -0.4920 0.1074
v 0.0450 -0.4900 0.1300
v 0.0450 -0.4920 0.1526
v 0.0450 -0.4978 0.1745
v 0.0450 -0.5074 0.1950
v 0.0450 -0.5204 0.2136
v 0.0450 -0.5364 0.2296
v 0.0450 -0.5550 0.2426
v 0.0450 -0.5755 0.2522
v 0.0450 -0.5974 0.2580
v -0.0470 -0.6200 0.2106
v -0.0470 -0.6340 0.2094
v -0.0470 -0.6476 0.2057
v -0.0470 -0.6603 0.1998
v -0.0470 -0.6718 0.1917
v -0.0470 -0.6817 0.1818
v -0.0470 -0.6898 0.1703
v -0.0470 -0.6957 0.1576
v -0.0470 -0.6994 0.1440
v -0.0470 -0.7006 0.1300
v -0.0470 -0.6994 0.1160
v -0.0470 -0.6957 0.1024
v -0.0470 -0.6898 0.0897
v -0.0470 -0.6817 0.0782
v -0.0470 -0.6718 0.0683
v -0.0470 -0.6603 0.0602
v -0.0470 -0.6476 0.0543
v -0.0470 -0.6340 0.0506
v -0.0470 -0.6200 0.0494
v -0.0470 -0.6060 0.0506
v -0.0470 -0.5924 0.0543
v -0.0470 -0.5797 0.0602
v -0.0470 -0.5682 0.0683
v -0.0470 -0.5583 0.0782
v -0.0470 -0.5502 0.0897
v -0.0470 -0.5443 0.1024
v -0.0470 -0.5406 0.1160
v -0.0470 -0.5394 0.1300
v -0.0470 -0.5406 0.1440
v -0.0470 -0.5443 0.1576
v -0.0470 -0.5502 0.1703
v -0.0470 -0.5583 0.1818
v -0.0470 -0.5682 0.1917
v -0.0470 -0.5797 0.1998
v -0.0470 -0.5924 0.2057
v -0.0470 -0.6060 0.2094
v 0.0470 -0.6200 0.2106
v 0.0470 -0.6340 0.2094
v 0.0470 -0.6476 0.2057
v 0.0470 -0.6603 0.1998
v 0.0470 -0.6718 0.1917
v 0.0470 -0.6817 0.1818
v 0.0470 -0.6898 0.1703
v 0.0470 -0.6957 0.1576
v 0.0470 -0.6994 0.1440
v 0.0470 -0.7006 0.1300
v 0.0470 -0.6994 0.1160
v 0.0470 -0.6957 0.1024
v 0.0470 -0.6898 0.0897
v 0.0470 -0.6817 0.0782
v 0.0470 -0.6718 0.0683
v 0.0470 -0.6603 0.0602
v 0.0470 -0.6476 0.0543
v 0.0470 -0.6340 0.0506
v 0.0470 -0.6200 0.0494
v 0.0470 -0.6060 0.0506
v 0.0470 -0.5924 0.0543
v 0.0470 -0.5797 0.0602
v 0.0470 -0.5682 0.0683
v 0.0470 -0.5583 0.0782
v 0.0470 -0.5502 0.0897
v 0.0470 -0.5443 0.1024
v 0.0470 -0.5406 0.1160
v 0.0470 -0.5394 0.1300
v 0.0470 -0.5406 0.1440
v 0.0470 -0.5443 0.1576
v 0.0470 -0.5502 0.1703
v 0.0470 -0.5583 0.1818
v 0.0470 -0.5682 0.1917
v 0.0470 -0.5797 0.1998
v 0.0470 -0.5924 0.2057
v 0.0470 -0.6060 0.2094
v -0.0500 -0.6200 0.1550
v -0.0500 -0.6296 0.1531
v -0.0500 -0.6377 0.1477
v -0.0500 -0.6431 0.1396
v -0.0500 -0.6450 0.1300
v -0.0500 -0.6431 0.1204
v -0.0500 -0.6377 0.1123
v -0.0500 -0.6296 0.1069
v -0.0500 -0.6200 0.1050
v -0.0500 -0.6104 0.1069
v -0.0500 -0.6023 0.1123
v -0.0500 -0.5969 0.1204
v -0.0500 -0.5950 0.1300
v -0.0500 -0.5969 0.1396
v -0.0500 -0.6023 0.1477
v -0.0500 -0.6104 0.1531
v 0.0500 -0.6200 0.1550
v 0.0500 -0.6296 0.1531
v 0.0500 -0.6377 0.1477
v 0.0500 -0.6431 0.1396
v 0.0500 -0.6450 0.1300
v 0.0500 -0.6431 0.1204
v 0.0500 -0.6377 0.1123
v 0.0500 -0.6296 0.1069
v 0.0500 -0.6200 0.1050
v 0.0500 -0.6104 0.1069
v 0.0500 -0.6023 0.1123
v 0.0500 -0.5969 0.1204
v 0.0500 -0.5950 0.1300
v 0.0500 -0.5969 0.1396
v 0.0500 -0.6023 0.1477
v 0.0500 -0.6104 0.1531
v -0.0850 -0.3900 0.1775
v -0.0850 -0.3900 0.2225
v -0.0850 0.3900 0.1775
v -0.0850 0.3900 0.2225
v 0.0850 -0.3900 0.1775
v 0.0850 -0.3900 0.2225
v 0.0850 0.3900 0.1775
v 0.0850 0.3900 0.2225
v -0.0750 -0.3300 0.2225
v -0.0750 -0.3300 0.2305
v -0.0750 0.3700 0.2225
v -0.0750 0.3700 0.2305
v 0.0750 -0.3300 0.2225
v 0.0750 -0.3300 0.2305
v 0.0750 0.3700 0.2225
v 0.0750 0.3700 0.2305
v -0.0650 -0.2500 0.1350
v -0.0650 -0.2500 0.1750
v -0.0650 0.2500 0.1350
v -0.0650 0.2500 0.1750
v 0.0650 -0.2500 0.1350
v 0.0650 -0.2500 0.1750
v 0.0650 0.2500 0.1350
v 0.0650 0.2500 0.1750
v -0.0550 -0.7700 0.2790
v -0.0550 -0.7700 0.2910
v -0.0550 -0.4700 0.2790
v -0.0550 -0.4700 0.2910
v 0.0550 -0.7700 0.2790
v 0.0550 -0.7700 0.2910
v 0.0550 -0.4700 0.2790
v 0.0550 -0.4700 0.2910
v -0.0550 0.4900 0.2790
v -0.0550 0.4900 0.2910
v -0.0550 0.7500 0.2790
v -0.0550 0.7500 0.2910
v 0.0550 0.4900 0.2790
v 0.0550 0.4900 0.2910
v 0.0550 0.7500 0.2790
v 0.0550 0.7500 0.2910
v -0.0600 0.6339 0.1320
v -0.0636 0.6334 0.1321
v -0.0670 0.6320 0.1320
v -0.0699 0.6297 0.1318
v -0.0721 0.6269 0.1314
v -0.0735 0.6235 0.1310
v -0.0740 0.6199 0.1305
v -0.0735 0.6163 0.1300
v -0.0721 0.6130 0.1294
v -0.0699 0.6102 0.1289
v -0.0670 0.6080 0.1285
v -0.0636 0.6066 0.1282
v -0.0600 0.6061 0.1280
v -0.0564 0.6066 0.1279
v -0.0530 0.6080 0.1280
v -0.0501 0.6103 0.1282
v -0.0479 0.6131 0.1286
v -0.0465 0.6165 0.1290
v -0.0460 0.6201 0.1295
v -0.0465 0.6237 0.1300
v -0.0479 0.6270 0.1306
v -0.0501 0.6298 0.1311
v -0.0530 0.6320 0.1315
v -0.0564 0.6334 0.1318
v -0.0300 0.5139 0.9520
v -0.0336 0.5134 0.9521
v -0.0370 0.5120 0.9520
v -0.0399 0.5097 0.9518
v -0.0421 0.5069 0.9514
v -0.0435 0.5035 0.9510
v -0.0440 0.4999 0.9505
v -0.0435 0.4963 0.9500
v -0.0421 0.4930 0.9494
v -0.0399 0.4902 0.9489
v -0.0370 0.4880 0.9485
v -0.0336 0.4866 0.9482
v -0.0300 0.4861 0.9480
v -0.0264 0.4866 0.9479
v -0.0230 0.4880 0.9480
v -0.0201 0.4903 0.9482
v -0.0179 0.4931 0.9486
v -0.0165 0.4965 0.9490
v -0.0160 0.5001 0.9495
v -0.0165 0.5037 0.9500
v -0.0179 0.5070 0.9506
v -0.0201 0.5098 0.9511
v -0.0230 0.5120 0.9515
v -0.0264 0.5134 0.9518
v 0.0600 0.6339 0.1320
v 0.0564 0.6334 0.1318
v 0.0530 0.6320 0.1315
v 0.0501 0.6298 0.1311
v 0.0479 0.6270 0.1306
v 0.0465 0.6237 0.1300
v 0.0460 0.6201 0.1295
v 0.0465 0.6165 0.1290
v 0.0479 0.6131 0.1286
v 0.0501 0.6103 0.1282
v 0.0530 0.6080 0.1280
v 0.0564 0.6066 0.1279
v 0.0600 0.6061 0.1280
v 0.0636 0.6066 0.1282
v 0.0670 0.6080 0.1285
v 0.0699 0.6102 0.1289
v 0.0721 0.6130 0.1294
v 0.0735 0.6163 0.1300
v 0.0740 0.6199 0.1305
v 0.0735 0.6235 0.1310
v 0.0721 0.6269 0.1314
v 0.0699 0.6297 0.1318
v 0.0670 0.6320 0.1320
v 0.0636 0.6334 0.1321
v 0.0300 0.5139 0.9520
v 0.0264 0.5134 0.9518
v 0.0230 0.5120 0.9515
v 0.0201 0.5098 0.9511
v 0.0179 0.5070 0.9506
v 0.0165 0.5037 0.9500
v 0.0160 0.5001 0.9495
v 0.0165 0.4965 0.9490
v 0.0179 0.4931 0.9486
v 0.0201 0.4903 0.9482
v 0.0230 0.4880 0.9480
v 0.0264 0.4866 0.9479
v 0.0300 0.4861 0.9480
v 0.0336 0.4866 0.9482
v 0.0370 0.4880 0.9485
v 0.0399 0.4902 0.9489
v 0.0421 0.4930 0.9494
v 0.0435 0.4963 0.9500
v 0.0440 0.4999 0.9505
v 0.0435 0.5035 0.9510
v 0.0421 0.5069 0.9514
v 0.0399 0.5097 0.9518
v 0.0370 0.5120 0.9520
v 0.0336 0.5134 0.9521
v 0.0000 0.5020 0.1995
v -0.0057 0.5012 0.1995
v -0.0110 0.4990 0.1996
v -0.0156 0.4956 0.1996
v -0.0191 0.4910 0.1998
v -0.0213 0.4857 0.1999
v -0.0220 0.4800 0.2000
v -0.0213 0.4743 0.2001
v -0.0191 0.4690 0.2002
v -0.0156 0.4644 0.2004
v -0.0110 0.4610 0.2004
v -0.0057 0.4588 0.2005
v -0.0000 0.4580 0.2005
v 0.0057 0.4588 0.2005
v 0.0110 0.4610 0.2004
v 0.0156 0.4644 0.2004
v 0.0191 0.4690 0.2002
v 0.0213 0.4743 0.2001
v 0.0220 0.4800 0.2000
v 0.0213 0.4857 0.1999
v 0.0191 0.4910 0.1998
v 0.0156 0.4956 0.1996
v 0.0110 0.4990 0.1996
v 0.0057 0.5012 0.1995
v 0.0000 0.5220 1.0795
v -0.0057 0.5212 1.0795
v -0.0110 0.5190 1.0796
v -0.0156 0.5156 1.0796
v -0.0191 0.5110 1.0798
v -0.0213 0.5057 1.0799
v -0.0220 0.5000 1.0800
v -0.0213 0.4943 1.0801
v -0.0191 0.4890 1.0802
v -0.0156 0.4844 1.0804
v -0.0110 0.4810 1.0804
v -0.0057 0.4788 1.0805
v -0.0000 0.4780 1.0805
v 0.0057 0.4788 1.0805
v 0.0110 0.4810 1.0804
v 0.0156 0.4844 1.0804
v 0.0191 0.4890 1.0802
v 0.0213 0.4943 1.0801
v 0.0220 0.5000 1.0800
v 0.0213 0.5057 1.0799
v 0.0191 0.5110 1.0798
v 0.0156 0.5156 1.0796
v 0.0110 0.5190 1.0796
v 0.0057 0.5212 1.0795
v -0.0350 0.4500 0.3300
v -0.0350 0.4385 0.3277
v -0.0350 0.4288 0.3212
v -0.0350 0.4223 0.3115
v -0.0350 0.4200 0.3000
v -0.0350 0.4223 0.2885
v -0.0350 0.4288 0.2788
v -0.0350 0.4385 0.2723
v -0.0350 0.4500 0.2700
v -0.0350 0.4615 0.2723
v -0.0350 0.4712 0.2788
v -0.0350 0.4777 0.2885
v -0.0350 0.4800 0.3000
v -0.0350 0.4777 0.3115
v -0.0350 0.4712 0.3212
v -0.0350 0.4615 0.3277
v 0.0350 0.4500 0.3300
v 0.0350 0.4385 0.3277
v 0.0350 0.4288 0.3212
v 0.0350 0.4223 0.3115
v 0.0350 0.4200 0.3000
v 0.0350 0.4223 0.2885
v 0.0350 0.4288 0.2788
v 0.0350 0.4385 0.2723
v 0.0350 0.4500 0.2700
v 0.0350 0.4615 0.2723
v 0.0350 0.4712 0.2788
v 0.0350 0.4777 0.2885
v 0.0350 0.4800 0.3000
v 0.0350 0.4777 0.3115
v 0.0350 0.4712 0.3212
v 0.0350 0.4615 0.3277
v -0.3000 0.5000 1.0920
v -0.3000 0.4954 1.0911
v -0.3000 0.4915 1.0885
v -0.3000 0.4889 1.0846
v -0.3000 0.4880 1.0800
v -0.3000 0.4889 1.0754
v -0.3000 0.4915 1.0715
v -0.3000 0.4954 1.0689
v -0.3000 0.5000 1.0680
v -0.3000 0.5046 1.0689
v -0.3000 0.5085 1.0715
v -0.3000 0.5111 1.0754
v -0.3000 0.5120 1.0800
v -0.3000 0.5111 1.0846
v -0.3000 0.5085 1.0885
v -0.3000 0.5046 1.0911
v 0.3000 0.5000 1.0920
v 0.3000 0.4954 1.0911
v 0.3000 0.4915 1.0885
v 0.3000 0.4889 1.0846
v 0.3000 0.4880 1.0800
v 0.3000 0.4889 1.0754
v 0.3000 0.4915 1.0715
v 0.3000 0.4954 1.0689
v 0.3000 0.5000 1.0680
v 0.3000 0.5046 1.0689
v 0.3000 0.5085 1.0715
v 0.3000 0.5111 1.0754
v 0.3000 0.5120 1.0800
v 0.3000 0.5111 1.0846
v 0.3000 0.5085 1.0885
v 0.3000 0.5046 1.0911
v -0.3000 0.5000 1.0960
v -0.3000 0.4939 1.0948
v -0.3000 0.4887 1.0913
v -0.3000 0.4852 1.0861
v -0.3000 0.4840 1.0800
v -0.3000 0.4852 1.0739
v -0.3000 0.4887 1.0687
v -0.3000 0.4939 1.0652
v -0.3000 0.5000 1.0640
v -0.3000 0.5061 1.0652
v -0.3000 0.5113 1.0687
v -0.3000 0.5148 1.0739
v -0.3000 0.5160 1.0800
v -0.3000 0.5148 1.0861
v -0.3000 0.5113 1.0913
v -0.3000 0.5061 1.0948
v -0.2000 0.5000 1.0960
v -0.2000 0.4939 1.0948
v -0.2000 0.4887 1.0913
v -0.2000 0.4852 1.0861
v -0.2000 0.4840 1.0800
v -0.2000 0.4852 1.0739
v -0.2000 0.4887 1.0687
v -0.2000 0.4939 1.0652
v -0.2000 0.5000 1.0640
v -0.2000 0.5061 1.0652
v -0.2000 0.5113 1.0687
v -0.2000 0.5148 1.0739
v -0.2000 0.5160 1.0800
v -0.2000 0.5148 1.0861
v -0.2000 0.5113 1.0913
v -0.2000 0.5061 1.0948
v 0.2000 0.5000 1.0960
v 0.2000 0.4939 1.0948
v 0.2000 0.4887 1.0913
v 0.2000 0.4852 1.0861
v 0.2000 0.4840 1.0800
v 0.2000 0.4852 1.0739
v 0.2000 0.4887 1.0687
v 0.2000 0.4939 1.0652
v 0.2000 0.5000 1.0640
v 0.2000 0.5061 1.0652
v 0.2000 0.5113 1.0687
v 0.2000 0.5148 1.0739
v 0.2000 0.5160 1.0800
v 0.2000 0.5148 1.0861
v 0.2000 0.5113 1.0913
v 0.2000 0.5061 1.0948
v 0.3000 0.5000 1.0960
v 0.3000 0.4939 1.0948
v 0.3000 0.4887 1.0913
v 0.3000 0.4852 1.0861
v 0.3000 0.4840 1.0800
v 0.3000 0.4852 1.0739
v 0.3000 0.4887 1.0687
v 0.3000 0.4939 1.0652
v 0.3000 0.5000 1.0640
v 0.3000 0.5061 1.0652
v 0.3000 0.5113 1.0687
v 0.3000 0.5148 1.0739
v 0.3000 0.5160 1.0800
v 0.3000 0.5148 1.0861
v 0.3000 0.5113 1.0913
v 0.3000 0.5061 1.0948
v -0.0350 0.4775 1.1000
v -0.0350 0.4775 1.1400
v -0.0350 0.5025 1.1000
v -0.0350 0.5025 1.1400
v 0.0350 0.4775 1.1000
v 0.0350 0.4775 1.1400
v 0.0350 0.5025 1.1000
v 0.0350 0.5025 1.1400
v -0.0250 0.5200 0.7825
v -0.0250 0.5200 0.8175
v -0.0250 0.5400 0.7825
v -0.0250 0.5400 0.8175
v 0.0250 0.5200 0.7825
v 0.0250 0.5200 0.8175
v 0.0250 0.5400 0.7825
v 0.0250 0.5400 0.8175
v -0.0300 -0.5100 0.2200
v -0.0300 -0.5100 0.2400
v -0.0300 -0.4900 0.2200
v -0.0300 -0.4900 0.2400
v 0.0300 -0.5100 0.2200
v 0.0300 -0.5100 0.2400
v 0.0300 -0.4900 0.2200
v 0.0300 -0.4900 0.2400
v 0.0700 -0.3070 0.1838
v 0.0654 -0.3062 0.1821
v 0.0626 -0.3030 0.1796
v 0.0626 -0.2987 0.1773
v 0.0654 -0.2948 0.1759
v 0.0700 -0.2930 0.1762
v 0.0746 -0.2938 0.1779
v 0.0774 -0.2970 0.1804
v 0.0774 -0.3013 0.1827
v 0.0746 -0.3052 0.1841
v 0.1000 -0.3670 0.0738
v 0.0954 -0.3662 0.0721
v 0.0926 -0.3630 0.0696
v 0.0926 -0.3587 0.0673
v 0.0954 -0.3548 0.0659
v 0.1000 -0.3530 0.0662
v 0.1046 -0.3538 0.0679
v 0.1074 -0.3570 0.0704
v 0.1074 -0.3613 0.0727
v 0.1046 -0.3652 0.0741
usemtl tire
f 1 2 38 37
f 2 3 39 38
f 3 4 40 39
f 4 5 41 40
f 5 6 42 41
f 6 7 43 42
f 7 8 44 43
f 8 9 45 44
f 9 10 46 45
f 10 11 47 46
f 11 12 48 47
f 12 13 49 48
f 13 14 50 49
f 14 15 51 50
f 15 16 52 51
f 16 17 53 52
f 17 18 54 53
f 18 19 55 54
f 19 20 56 55
f 20 21 57 56
f 21 22 58 57
f 22 23 59 58
f 23 24 60 59
f 24 25 61 60
f 25 26 62 61
f 26 27 63 62
f 27 28 64 63
f 28 29 65 64
f 29 30 66 65
f 30 31 67 66
f 31 32 68 67
f 32 33 69 68
f 33 34 70 69
f 34 35 71 70
f 35 36 72 71
f 36 1 37 72
f 36 35 34 33 32 31 30 29 28 27 26 25 24 23 22 21 20 19 18 17 16 15 14 13 12 11 10 9 8 7 6 5 4 3 2 1
f 37 38 39 40 41 42 43 44 45 46 47 48 49 50 51 52 53 54 55 56 57 58 59 60 61 62 63 64 65 66 67 68 69 70 71 72
usemtl rim
f 73 74 110 109
f 74 75 111 110
f 75 76 112 111
f 76 77 113 112
f 77 78 114 113
f 78 79 115 114
f 79 80 116 115
f 80 81 117 116
f 81 82 118 117
f 82 83 119 118
f 83 84 120 119
f 84 85 121 120
f 85 86 122 121
f 86 87 123 122
f 87 88 124 123
f 88 89 125 124
f 89 90 126 125
f 90 91 127 126
f 91 92 128 127
f 92 93 129 128
f 93 94 130 129
f 94 95 131 130
f 95 96 132 131
f 96 97 133 132
f 97 98 134 133
f 98 99 135 134
f 99 100 136 135
f 100 101 137 136
f 101 102 138 137
f 102 103 139 138
f 103 104 140 139
f 104 105 141 140
f 105 106 142 141
f 106 107 143 142
f 107 108 144 143
f 108 73 109 144
f 108 107 106 105 104 103 102 101 100 99 98 97 96 95 94 93 92 91 90 89 88 87 86 85 84 83 82 81 80 79 78 77 76 75 74 73
f 109 110 111 112 113 114 115 116 117 118 119 120 121 122 123 124 125 126 127 128 129 130 131 132 133 134 135 136 137 138 139 140 141 142 143 144
usemtl hub
f 145 146 162 161
f 146 147 163 162
f 147 148 164 163
f 148 149 165 164
f 149 150 166 165
f 150 151 167 166
f 151 152 168 167
f 152 153 169 168
f 153 154 170 169
f 154 155 171 170
f 155 156 172 171
f 156 157 173 172
f 157 158 174 173
f 158 159 175 174
f 159 160 176 175
f 160 145 161 176
f 160 159 158 157 156 155 154 153 152 151 150 149 148 147 146 145
f 161 162 163 164 165 166 167 168 169 170 171 172 173 174 175 176
usemtl tire
f 177 178 214 213
f 178 179 215 214
f 179 180 216 215
f 180 181 217 216
f 181 182 218 217
f 182 183 219 218
f 183 184 220 219
f 184 185 221 220
f 185 186 222 221
f 186 187 223 222
f 187 188 224 223
f 188 189 225 224
f 189 190 226 225
f 190 191 227 226
f 191 192 228 227
f 192 193 229 228
f 193 194 230 229
f 194 195 231 230
f 195 196 232 231
f 196 197 233 232
f 197 198 234 233
f 198 199 235 234
f 199 200 236 235
f 200 201 237 236
f 201 202 238 237
f 202 203 239 238
f 203 204 240 239
f 204 205 241 240
f 205 206 242 241
f 206 207 243 242
f 207 208 244 243
f 208 209 245 244
f 209 210 246 245
f 210 211 247 246
f 211 212 248 247
f 212 177 213 248
f 212 211 210 209 208 207 206 205 204 203 202 201 200 199 198 197 196 195 194 193 192 191 190 189 188 187 186 185 184 183 182 181 180 179 178 177
f 213 214 215 216 217 218 219 220 221 222 223 224 225 226 227 228 229 230 231 232 233 234 235 236 237 238 239 240 241 242 243 244 245 246 247 248
usemtl rim
f 249 250 286 285
f 250 251 287 286
f 251 252 288 287
f 252 253 289 288
f 253 254 290 289
f 254 255 291 290
f 255 256 292 291
f 256 257 293 292
f 257 258 294 293
f 258 259 295 294
f 259 260 296 295
f 260 261 297 296
f 261 262 298 297
f 262 263 299 298
f 263 264 300 299
f 264 265 301 300
f 265 266 302 301
f 266 267 303 302
f 267 268 304 303
f 268 269 305 304
f 269 270 306 305
f 270 271 307 306
f 271 272 308 307
f 272 273 309 308
f 273 274 310 309
f 274 275 311 310
f 275 276 312 311
f 276 277 313 312
f 277 278 314 313
f 278 279 315 314
f 279 280 316 315
f 280 281 317 316
f 281 282 318 317
f 282 283 319 318
f 283 284 320 319
f 284 249 285 320
f 284 283 282 281 280 279 278 277 276 275 274 273 272 271 270 269 268 267 266 265 264 263 262 261 260 259 258 257 256 255 254 253 252 251 250 249
f 285 286 287 288 289 290 291 292 293 294 295 296 297 298 299 300 301 302 303 304 305 306 307 308 309 310 311 312 313 314 315 316 317 318 319 320
usemtl hub
f 321 322 338 337
f 322 323 339 338
f 323 324 340 339
f 324 325 341 340
f 325 326 342 341
f 326 327 343 342
f 327 328 344 343
f 328 329 345 344
f 329 330 346 345
f 330 331 347 346
f 331 332 348 347
f 332 333 349 348
f 333 334 350 349
f 334 335 351 350
f 335 336 352 351
f 336 321 337 352
f 336 335 334 333 332 331 330 329 328 327 326 325 324 323 322 321
f 337 338 339 340 341 342 343 344 345 346 347 348 349 350 351 352
usemtl deck
f 353 354 356 355
f 357 359 360 358
f 353 357 358 354
f 355 356 360 359
f 353 355 359 357
f 354 358 360 356
usemtl grip
f 361 362 364 363
f 365 367 368 366
f 361 365 366 362
f 363 364 368 367
f 361 363 367 365
f 362 366 368 364
usemtl battery
f 369 370 372 371
f 373 375 376 374
f 369 373 374 370
f 371 372 376 375
f 369 371 375 373
f 370 374 376 372
usemtl body
f 377 378 380 379
f 381 383 384 382
f 377 381 382 378
f 379 380 384 383
f 377 379 383 381
f 378 382 384 380
f 385 386 388 387
f 389 391 392 390
f 385 389 390 386
f 387 388 392 391
f 385 387 391 389
f 386 390 392 388
usemtl body
f 393 394 418 417
f 394 395 419 418
f 395 396 420 419
f 396 397 421 420
f 397 398 422 421
f 398 399 423 422
f 399 400 424 423
f 400 401 425 424
f 401 402 426 425
f 402 403 427 426
f 403 404 428 427
f 404 405 429 428
f 405 406 430 429
f 406 407 431 430
f 407 408 432 431
f 408 409 433 432
f 409 410 434 433
f 410 411 435 434
f 411 412 436 435
f 412 413 437 436
f 413 414 438 437
f 414 415 439 438
f 415 416 440 439
f 416 393 417 440
f 416 415 414 413 412 411 410 409 408 407 406 405 404 403 402 401 400 399 398 397 396 395 394 393
f 417 418 419 420 421 422 423 424 425 426 427 428 429 430 431 432 433 434 435 436 437 438 439 440
f 441 442 466 465
f 442 443 467 466
f 443 444 468 467
f 444 445 469 468
f 445 446 470 469
f 446 447 471 470
f 447 448 472 471
f 448 449 473 472
f 449 450 474 473
f 450 451 475 474
f 451 452 476 475
f 452 453 477 476
f 453 454 478 477
f 454 455 479 478
f 455 456 480 479
f 456 457 481 480
f 457 458 482 481
f 458 459 483 482
f 459 460 484 483
f 460 461 485 484
f 461 462 486 485
f 462 463 487 486
f 463 464 488 487
f 464 441 465 488
f 464 463 462 461 460 459 458 457 456 455 454 453 452 451 450 449 448 447 446 445 444 443 442 441
f 465 466 467 468 469 470 471 472 473 474 475 476 477 478 479 480 481 482 483 484 485 486 487 488
usemtl stem
f 489 490 514 513
f 490 491 515 514
f 491 492 516 515
f 492 493 517 516
f 493 494 518 517
f 494 495 519 518
f 495 496 520 519
f 496 497 521 520
f 497 498 522 521
f 498 499 523 522
f 499 500 524 523
f 500 501 525 524
f 501 502 526 525
f 502 503 527 526
f 503 504 528 527
f 504 505 529 528
f 505 506 530 529
f 506 507 531 530
f 507 508 532 531
f 508 509 533 532
f 509 510 534 533
f 510 511 535 534
f 511 512 536 535
f 512 489 513 536
f 512 511 510 509 508 507 506 505 504 503 502 501 500 499 498 497 496 495 494 493 492 491 490 489
f 513 514 515 516 517 518 519 520 521 522 523 524 525 526 527 528 529 530 531 532 533 534 535 536
usemtl accent
f 537 538 554 553
f 538 539 555 554
f 539 540 556 555
f 540 541 557 556
f 541 542 558 557
f 542 543 559 558
f 543 544 560 559
f 544 545 561 560
f 545 546 562 561
f 546 547 563 562
f 547 548 564 563
f 548 549 565 564
f 549 550 566 565
f 550 551 567 566
f 551 552 568 567
f 552 537 553 568
f 552 551 550 549 548 547 546 545 544 543 542 541 540 539 538 537
f 553 554 555 556 557 558 559 560 561 562 563 564 565 566 567 568
usemtl stem
f 569 570 586 585
f 570 571 587 586
f 571 572 588 587
f 572 573 589 588
f 573 574 590 589
f 574 575 591 590
f 575 576 592 591
f 576 577 593 592
f 577 578 594 593
f 578 579 595 594
f 579 580 596 595
f 580 581 597 596
f 581 582 598 597
f 582 583 599 598
f 583 584 600 599
f 584 569 585 600
f 584 583 582 581 580 579 578 577 576 575 574 573 572 571 570 569
f 585 586 587 588 589 590 591 592 593 594 595 596 597 598 599 600
usemtl grip
f 601 602 618 617
f 602 603 619 618
f 603 604 620 619
f 604 605 621 620
f 605 606 622 621
f 606 607 623 622
f 607 608 624 623
f 608 609 625 624
f 609 610 626 625
f 610 611 627 626
f 611 612 628 627
f 612 613 629 628
f 613 614 630 629
f 614 615 631 630
f 615 616 632 631
f 616 601 617 632
f 616 615 614 613 612 611 610 609 608 607 606 605 604 603 602 601
f 617 618 619 620 621 622 623 624 625 626 627 628 629 630 631 632
f 633 634 650 649
f 634 635 651 650
f 635 636 652 651
f 636 637 653 652
f 637 638 654 653
f 638 639 655 654
f 639 640 656 655
f 640 641 657 656
f 641 642 658 657
f 642 643 659 658
f 643 644 660 659
f 644 645 661 660
f 645 646 662 661
f 646 647 663 662
f 647 648 664 663
f 648 633 649 664
f 648 647 646 645 644 643 642 641 640 639 638 637 636 635 634 633
f 649 650 651 652 653 654 655 656 657 658 659 660 661 662 663 664
usemtl screen
f 665 666 668 667
f 669 671 672 670
f 665 669 670 666
f 667 668 672 671
f 665 667 671 669
f 666 670 672 668
usemtl light
f 673 674 676 675
f 677 679 680 678
f 673 677 678 674
f 675 676 680 679
f 673 675 679 677
f 674 678 680 676
usemtl red
f 681 682 684 683
f 685 687 688 686
f 681 685 686 682
f 683 684 688 687
f 681 683 687 685
f 682 686 688 684
usemtl body
f 689 690 700 699
f 690 691 701 700
f 691 692 702 701
f 692 693 703 702
f 693 694 704 703
f 694 695 705 704
f 695 696 706 705
f 696 697 707 706
f 697 698 708 707
f 698 689 699 708
f 698 697 696 695 694 693 692 691 690 689
f 699 700 701 702 703 704 705 706 707 708
